<svg version="1.1" xmlns="http://www.w3.org/2000/svg" width="475" height="512" viewBox="0 0 475 512"><title>quote-right</title><path d="M219.429 91.428v201.143c0 80.572-65.715 146.286-146.286 146.286h-18.285c-10 0-18.285-8.286-18.285-18.286v-36.572c0-10 8.285-18.286 18.285-18.286h18.285c40.285 0 73.143-32.857 73.143-73.143v-9.143c0-15.143-12.286-27.428-27.428-27.428h-64c-30.285 0-54.857-24.572-54.857-54.857v-109.715c0-30.285 24.572-54.857 54.857-54.857h109.715c30.286 0 54.857 24.572 54.857 54.857zM475.428 91.428v201.143c0 80.572-65.714 146.286-146.286 146.286h-18.286c-10 0-18.286-8.286-18.286-18.286v-36.572c0-10 8.286-18.286 18.286-18.286h18.286c40.286 0 73.143-32.857 73.143-73.143v-9.143c0-15.143-12.286-27.428-27.428-27.428h-64c-30.286 0-54.857-24.572-54.857-54.857v-109.715c0-30.285 24.572-54.857 54.857-54.857h109.714c30.286 0 54.857 24.572 54.857 54.857z"></path></svg>